<?xml version="1.0" encoding="UTF-8" standalone="no"?>
<!DOCTYPE svg PUBLIC "-//W3C//DTD SVG 1.1//EN"
 "http://www.w3.org/Graphics/SVG/1.1/DTD/svg11.dtd">
<!-- Generated by graphviz version 2.36.0 (20140111.2315)
 -->
<!-- Title: G Pages: 1 -->
<svg width="132pt" height="96pt"
 viewBox="0.00 0.00 132.00 96.00" xmlns="http://www.w3.org/2000/svg" xmlns:xlink="http://www.w3.org/1999/xlink">
<g id="graph0" class="graph" transform="scale(1 1) rotate(0) translate(4 92)">
<title>G</title>
<polygon fill="white" stroke="none" points="-4,4 -4,-92 128,-92 128,4 -4,4"/>
<g id="clust1" class="cluster"><title>cluster_Global</title>
<path fill="none" stroke="gray" d="M20,-8C20,-8 104,-8 104,-8 110,-8 116,-14 116,-20 116,-20 116,-68 116,-68 116,-74 110,-80 104,-80 104,-80 20,-80 20,-80 14,-80 8,-74 8,-68 8,-68 8,-20 8,-20 8,-14 14,-8 20,-8"/>
<text text-anchor="middle" x="62" y="-67.2" font-family="Times,serif" font-size="11.00" fill="gray">Global</text>
</g>
<!-- \\EventParser -->
<g id="node1" class="node"><title>\\EventParser</title>
<polygon fill="none" stroke="black" points="107.5,-52 16.5,-52 16.5,-16 107.5,-16 107.5,-52"/>
<text text-anchor="middle" x="62" y="-31.2" font-family="Courier,monospace" font-size="11.00">EventParser</text>
</g>
</g>
</svg>
